<svg width="32" height="64" viewBox="0 0 32 64" fill="none" xmlns="http://www.w3.org/2000/svg">
<g clip-path="url(#clip0_2129_9809)">
<path d="M30 42C21.1635 42 14 49.1633 14 58C14 58.9109 14.0762 59.8042 14.2224 60.6736C9.93805 62.8027 5.10883 64 0 64V0C17.6731 0 32 14.3269 32 32C32 35.4941 31.44 38.8574 30.4048 42.0051C30.2703 42.0017 30.1353 42 30 42Z" fill="#FFE598"/>
<path d="M27.316 38.1785C17.5395 39.4898 10 47.8644 10 58C10 58.0538 10.0002 58.1075 10.0006 58.1612C6.89486 59.3492 3.52343 60 0 60V4C15.464 4 28 16.536 28 32C28 34.123 27.7637 36.1908 27.316 38.1785Z" fill="#B24A1C"/>
<path d="M0 10C6.07513 10 11 14.9249 11 21C11 27.0751 6.07513 32 0 32V10Z" fill="#DA7D27"/>
</g>
<defs>
<clipPath id="clip0_2129_9809">
<rect width="32" height="64" fill="white" transform="matrix(-1 0 0 -1 32 64)"/>
</clipPath>
</defs>
</svg>
