<svg width="32" height="64" viewBox="0 0 32 64" fill="none" xmlns="http://www.w3.org/2000/svg">
<g clip-path="url(#clip0_2129_9663)">
<path d="M2 22C10.8365 22 18 14.8367 18 6C18 5.08911 17.9238 4.1958 17.7776 3.32642C22.062 1.19727 26.8912 0 32 0V64C14.3269 64 0 49.6731 0 32C0 28.5059 0.559998 25.1426 1.59515 21.9949C1.72968 21.9983 1.86469 22 2 22Z" fill="#FFE598"/>
<path d="M4.68395 25.8215C14.4605 24.5102 22 16.1356 22 6C22 5.9462 21.9998 5.89246 21.9994 5.83876C25.1051 4.6508 28.4766 4 32 4V60C16.536 60 4 47.464 4 32C4 29.877 4.23627 27.8092 4.68395 25.8215Z" fill="#E19000"/>
<path d="M32 32C25.9249 32 21 27.0751 21 21C21 14.9249 25.9249 10 32 10V32Z" fill="#FABD50"/>
</g>
<defs>
<clipPath id="clip0_2129_9663">
<rect width="32" height="64" fill="white"/>
</clipPath>
</defs>
</svg>
